<?xml version="1.0" encoding="utf-8"?>
<!-- Generator: Adobe Illustrator 16.0.0, SVG Export Plug-In . SVG Version: 6.00 Build 0)  -->
<!DOCTYPE svg PUBLIC "-//W3C//DTD SVG 1.1//EN" "http://www.w3.org/Graphics/SVG/1.1/DTD/svg11.dtd">
<svg version="1.1" id="Layer_1" xmlns="http://www.w3.org/2000/svg" xmlns:xlink="http://www.w3.org/1999/xlink" x="0px" y="0px"
	 width="64px" height="64px" viewBox="0 0 64 64" enable-background="new 0 0 64 64" xml:space="preserve">
<g>
	
		<path fill="none" stroke="#FFFFFF" stroke-width="0.9493" stroke-linecap="round" stroke-linejoin="round" stroke-miterlimit="10" d="
		M3.041,17.591h57.722c0.183,0,0.331,0.148,0.331,0.332v19.414c0,1.089-0.882,1.971-1.97,1.971H4.678
		c-1.088,0-1.969-0.882-1.969-1.971V17.923C2.709,17.739,2.857,17.591,3.041,17.591z"/>
	
		<line fill="none" stroke="#FFFFFF" stroke-width="0.9493" stroke-linecap="round" stroke-linejoin="round" stroke-miterlimit="10" x1="2.709" y1="36.459" x2="61.094" y2="36.459"/>
	
		<line fill="none" stroke="#FFFFFF" stroke-width="0.9493" stroke-linecap="round" stroke-linejoin="round" stroke-miterlimit="10" x1="5.675" y1="20.558" x2="58.364" y2="20.558"/>
	
		<line fill="none" stroke="#FFFFFF" stroke-width="0.9493" stroke-linecap="round" stroke-linejoin="round" stroke-miterlimit="10" x1="5.675" y1="22.457" x2="58.364" y2="22.457"/>
	
		<line fill="none" stroke="#FFFFFF" stroke-width="0.9493" stroke-linecap="round" stroke-linejoin="round" stroke-miterlimit="10" x1="5.675" y1="24.354" x2="58.364" y2="24.354"/>
	
		<line fill="none" stroke="#FFFFFF" stroke-width="0.9493" stroke-linecap="round" stroke-linejoin="round" stroke-miterlimit="10" x1="5.675" y1="26.253" x2="58.364" y2="26.253"/>
	
		<line fill="none" stroke="#FFFFFF" stroke-width="0.9493" stroke-linecap="round" stroke-linejoin="round" stroke-miterlimit="10" x1="5.675" y1="28.152" x2="58.364" y2="28.152"/>
	
		<line fill="none" stroke="#FFFFFF" stroke-width="0.9493" stroke-linecap="round" stroke-linejoin="round" stroke-miterlimit="10" x1="5.675" y1="30.052" x2="58.364" y2="30.052"/>
	
		<path fill="none" stroke="#FFFFFF" stroke-width="0.9493" stroke-linecap="round" stroke-linejoin="round" stroke-miterlimit="10" d="
		M35.856,32.535h-1.404c-0.535-0.414-1.475-0.691-2.551-0.691s-2.016,0.277-2.551,0.691h-1.405c-0.437,0-0.791,0.354-0.791,0.791
		c0,0.438,0.354,0.791,0.791,0.791h1.405c0.535,0.416,1.475,0.692,2.551,0.692s2.016-0.276,2.551-0.692h1.404
		c0.437,0,0.792-0.354,0.792-0.791C36.648,32.89,36.293,32.535,35.856,32.535z"/>
	
		<circle fill="none" stroke="#FFFFFF" stroke-width="0.9493" stroke-linecap="round" stroke-linejoin="round" stroke-miterlimit="10" cx="39.496" cy="33.326" r="0.771"/>
	
		<circle fill="none" stroke="#FFFFFF" stroke-width="0.9493" stroke-linecap="round" stroke-linejoin="round" stroke-miterlimit="10" cx="42.76" cy="33.326" r="0.771"/>
	
		<circle fill="none" stroke="#FFFFFF" stroke-width="0.9493" stroke-linecap="round" stroke-linejoin="round" stroke-miterlimit="10" cx="21.28" cy="33.326" r="0.772"/>
	
		<circle fill="none" stroke="#FFFFFF" stroke-width="0.9493" stroke-linecap="round" stroke-linejoin="round" stroke-miterlimit="10" cx="24.543" cy="33.326" r="0.772"/>
	
		<path fill="none" stroke="#FFFFFF" stroke-width="0.9493" stroke-linecap="round" stroke-linejoin="round" stroke-miterlimit="10" d="
		M14.655,41.84c0,0-4.035,1.74-1.504,4.43c2.532,2.69-0.158,5.537-0.158,5.537"/>
	
		<polyline fill="none" stroke="#FFFFFF" stroke-width="0.9493" stroke-linecap="round" stroke-linejoin="round" stroke-miterlimit="10" points="
		12.617,50.225 12.617,51.807 14.487,51.807 	"/>
	
		<path fill="none" stroke="#FFFFFF" stroke-width="0.9493" stroke-linecap="round" stroke-linejoin="round" stroke-miterlimit="10" d="
		M23.619,41.84c0,0-4.036,1.74-1.504,4.43c2.53,2.69-0.158,5.537-0.158,5.537"/>
	
		<polyline fill="none" stroke="#FFFFFF" stroke-width="0.9493" stroke-linecap="round" stroke-linejoin="round" stroke-miterlimit="10" points="
		21.581,50.225 21.581,51.807 23.45,51.807 	"/>
	
		<path fill="none" stroke="#FFFFFF" stroke-width="0.9493" stroke-linecap="round" stroke-linejoin="round" stroke-miterlimit="10" d="
		M32.582,41.84c0,0-4.035,1.74-1.503,4.43c2.531,2.69-0.158,5.537-0.158,5.537"/>
	
		<polyline fill="none" stroke="#FFFFFF" stroke-width="0.9493" stroke-linecap="round" stroke-linejoin="round" stroke-miterlimit="10" points="
		30.545,50.225 30.545,51.807 32.414,51.807 	"/>
	
		<path fill="none" stroke="#FFFFFF" stroke-width="0.9493" stroke-linecap="round" stroke-linejoin="round" stroke-miterlimit="10" d="
		M41.546,41.84c0,0-4.035,1.74-1.504,4.43c2.532,2.69-0.159,5.537-0.159,5.537"/>
	
		<polyline fill="none" stroke="#FFFFFF" stroke-width="0.9493" stroke-linecap="round" stroke-linejoin="round" stroke-miterlimit="10" points="
		39.508,50.225 39.508,51.807 41.377,51.807 	"/>
	
		<path fill="none" stroke="#FFFFFF" stroke-width="0.9493" stroke-linecap="round" stroke-linejoin="round" stroke-miterlimit="10" d="
		M50.509,41.84c0,0-4.034,1.74-1.503,4.43c2.531,2.69-0.158,5.537-0.158,5.537"/>
	
		<polyline fill="none" stroke="#FFFFFF" stroke-width="0.9493" stroke-linecap="round" stroke-linejoin="round" stroke-miterlimit="10" points="
		48.472,50.225 48.472,51.807 50.341,51.807 	"/>
</g>
</svg>
