<?xml version="1.0" encoding="utf-8"?>
<!-- Generator: Adobe Illustrator 16.0.0, SVG Export Plug-In . SVG Version: 6.00 Build 0)  -->
<!DOCTYPE svg PUBLIC "-//W3C//DTD SVG 1.1//EN" "http://www.w3.org/Graphics/SVG/1.1/DTD/svg11.dtd">
<svg version="1.1" id="Layer_1" xmlns="http://www.w3.org/2000/svg" xmlns:xlink="http://www.w3.org/1999/xlink" x="0px" y="0px"
	 width="64px" height="64px" viewBox="0 0 64 64" enable-background="new 0 0 64 64" xml:space="preserve">
<g>
	<path fill="#FFFFFF" d="M50.563,35.173c-0.203-0.107-0.407-0.205-0.604-0.294c-2.775-1.226-5.054-1.773-7.384-1.773
		c-1.675,0-3.393,0.291-5.213,0.883l3.341-20.777l-0.157-0.295c-0.079-0.15-0.175-0.305-0.29-0.457
		c0.062-0.645,0.234-3.782-2.033-5.771c-1.679-1.472-4.093-1.822-7.18-1.04c-2.231,0.564-4.769,2.681-7.76,6.468
		c-2.394,3.035-5.018,7.085-7.588,11.709c-4.162,7.488-8.778,17.771-9.081,22.654c-0.224,3.593,1.152,5.625,2.347,6.695
		c1.934,1.734,4.506,2.081,6.257,2.081c0.663,0,1.206-0.049,1.555-0.093c0.681,0.76,1.691,1.388,3.022,1.874
		c0.153,0.326,0.337,0.614,0.517,0.854l0.259,0.349l19.004,2.158l0.328-0.274c0.64-0.532,1.264-1.268,1.525-2.221
		c0.55-0.046,1.104-0.095,1.658-0.147c1.295,0.484,2.696,0.749,4.156,0.749c6.564,0,11.903-5.339,11.903-11.9
		C59.145,41.192,55.514,36.613,50.563,35.173z M43.9,35.179c-0.022,0.006-0.045,0.014-0.067,0.021
		c-0.074,0.023-0.149,0.047-0.223,0.069c-0.036,0.012-0.074,0.024-0.111,0.036c-0.075,0.025-0.151,0.051-0.229,0.079
		c-0.028,0.011-0.06,0.02-0.089,0.031c-0.104,0.038-0.207,0.077-0.31,0.118c-0.021,0.007-0.042,0.017-0.063,0.025
		c-0.081,0.033-0.163,0.066-0.244,0.102c-0.035,0.015-0.07,0.03-0.106,0.047c-0.067,0.029-0.135,0.059-0.199,0.089
		c-0.037,0.019-0.074,0.034-0.111,0.052c-0.07,0.033-0.138,0.067-0.206,0.102c-0.031,0.015-0.062,0.03-0.093,0.046
		c-0.096,0.049-0.19,0.099-0.285,0.15c-0.026,0.014-0.053,0.03-0.078,0.045c-0.071,0.038-0.139,0.076-0.206,0.117
		c-0.037,0.02-0.074,0.042-0.111,0.063c-0.059,0.034-0.117,0.07-0.176,0.106c-0.037,0.023-0.074,0.046-0.11,0.069
		c-0.062,0.04-0.121,0.079-0.182,0.119c-0.031,0.021-0.063,0.04-0.093,0.061c-0.088,0.06-0.175,0.118-0.26,0.181
		c-0.028,0.02-0.058,0.042-0.087,0.063c-0.06,0.043-0.118,0.087-0.176,0.13c-0.036,0.027-0.072,0.055-0.107,0.083
		c-0.053,0.039-0.103,0.078-0.153,0.12c-0.035,0.028-0.072,0.058-0.105,0.086c-0.057,0.045-0.11,0.09-0.164,0.137
		c-0.028,0.024-0.059,0.048-0.087,0.074c-0.078,0.066-0.156,0.135-0.233,0.205c-0.029,0.027-0.057,0.054-0.086,0.08
		c-0.05,0.049-0.103,0.096-0.153,0.145c-0.032,0.031-0.065,0.063-0.097,0.095c-0.046,0.046-0.092,0.092-0.138,0.138
		c-0.032,0.033-0.063,0.065-0.095,0.097c-0.049,0.053-0.099,0.105-0.147,0.159c-0.025,0.025-0.051,0.053-0.076,0.079
		c-0.068,0.077-0.139,0.154-0.207,0.234c-0.024,0.029-0.05,0.059-0.075,0.087c-0.045,0.056-0.091,0.108-0.135,0.163
		c-0.029,0.034-0.057,0.069-0.083,0.104c-0.042,0.053-0.084,0.105-0.125,0.158c-0.026,0.035-0.053,0.069-0.079,0.104
		c-0.046,0.061-0.092,0.123-0.137,0.185c-0.019,0.026-0.037,0.052-0.058,0.079c-0.061,0.086-0.12,0.171-0.181,0.26
		c-0.02,0.03-0.039,0.062-0.06,0.092c-0.041,0.061-0.081,0.123-0.119,0.185c-0.023,0.036-0.046,0.071-0.067,0.107
		c-0.037,0.06-0.073,0.121-0.109,0.181c-0.021,0.035-0.042,0.069-0.063,0.104c-0.042,0.073-0.083,0.147-0.124,0.222
		c-0.013,0.021-0.024,0.044-0.037,0.065c-0.051,0.094-0.102,0.19-0.15,0.287c-0.016,0.029-0.03,0.061-0.046,0.091
		c-0.034,0.068-0.068,0.139-0.102,0.209c-0.018,0.036-0.033,0.071-0.051,0.106c-0.031,0.068-0.063,0.138-0.092,0.205
		c-0.015,0.035-0.028,0.068-0.045,0.103c-0.037,0.087-0.074,0.176-0.108,0.265c-0.007,0.015-0.013,0.028-0.02,0.043
		c-0.04,0.103-0.079,0.207-0.117,0.311c-0.01,0.03-0.021,0.06-0.031,0.089c-0.026,0.077-0.053,0.153-0.08,0.231
		c-0.005,0.017-0.011,0.033-0.017,0.049l1.074-6.677c1.994-0.761,3.823-1.13,5.575-1.13C43.015,35.108,43.455,35.132,43.9,35.179z
		 M35.349,47.006c0.001,0.035,0.003,0.07,0.004,0.106c0.005,0.119,0.011,0.238,0.02,0.355c0.001,0.021,0.003,0.041,0.004,0.063
		c0.01,0.12,0.021,0.238,0.034,0.357c0.006,0.05,0.012,0.1,0.018,0.149c0.011,0.084,0.021,0.168,0.034,0.252
		c0.012,0.085,0.024,0.172,0.038,0.256c0.012,0.065,0.022,0.133,0.034,0.198c0.014,0.074,0.027,0.147,0.043,0.221
		c0.007,0.035,0.015,0.072,0.021,0.107c0.323,1.53,0.944,2.985,1.849,4.292c0.102,0.147,0.207,0.293,0.314,0.436l-3.519-0.425
		l1.098-6.826c0,0.019,0,0.035,0,0.055C35.341,46.737,35.345,46.871,35.349,47.006z M11.634,50.195
		c-0.791-0.711-1.125-1.845-1.024-3.469c0.22-3.535,3.91-12.546,8.585-20.959C24.998,15.324,29.82,10.087,32.026,9.528
		c1.674-0.424,2.933-0.367,3.545,0.161c0.46,0.396,0.634,1.113,0.688,1.683c-0.061,0.013-0.123,0.024-0.185,0.038l-0.661,0.14
		L30.94,37.033c-2.021,1.212-4.188,2.707-6.609,4.562c-4.99,3.82-7.777,6.995-8.448,9.634
		C14.764,51.306,12.769,51.213,11.634,50.195z M17.753,52.81c-0.205-1.208,0.531-4.064,7.795-9.625
		c1.771-1.357,3.398-2.514,4.927-3.503l-2.269,12.923l-6.284-0.844l-0.328,0.244c-0.071,0.056-0.141,0.108-0.21,0.162
		c-0.011,0.011-0.022,0.019-0.034,0.028c-0.067,0.055-0.136,0.11-0.2,0.166l-0.003,0.001c-0.958,0.82-1.438,1.63-1.622,2.383
		C18.477,54.211,17.884,53.563,17.753,52.81z M21.685,56.35c-0.062-0.103-0.114-0.207-0.157-0.317
		c-0.007-0.034-0.015-0.066-0.024-0.099c-0.024-0.076-0.059-0.187-0.07-0.327c-0.012-0.2,0.023-0.414,0.124-0.643
		c0.007-0.013,0.014-0.025,0.02-0.037c0.002-0.008,0.006-0.015,0.009-0.021c0.146-0.297,0.416-0.647,0.896-1.05l7.365,0.989
		l0.167-0.947l0,0l1.495-8.516l5.639-32.12c0.146-0.017,0.282-0.025,0.408-0.025c0.577,0,0.873,0.158,1.057,0.367L34.21,40.975
		l-2.108,13.109l0,0l-0.166,1.027l5.481,0.665l1.939,0.233c0.133,0.344,0.198,0.66,0.194,0.947c0,0.011,0,0.021,0.001,0.033
		c-0.017,0.477-0.224,0.903-0.63,1.318L21.685,56.35z M47.241,56.502c-5.012,0-9.166-3.744-9.812-8.584
		c-0.003-0.028-0.007-0.055-0.011-0.084c-0.008-0.059-0.014-0.119-0.021-0.179c-0.008-0.071-0.015-0.143-0.021-0.216
		c-0.004-0.045-0.007-0.089-0.01-0.133c-0.006-0.091-0.012-0.182-0.016-0.273c-0.003-0.032-0.004-0.063-0.004-0.096
		c-0.004-0.111-0.006-0.224-0.006-0.334c0-5.459,4.441-9.899,9.898-9.899c0.104,0,0.205,0.001,0.308,0.004
		c0.029,0.002,0.059,0.003,0.089,0.004c0.075,0.003,0.152,0.007,0.226,0.011c0.03,0.002,0.06,0.004,0.09,0.006
		c0.1,0.007,0.2,0.017,0.301,0.025c0.009,0.001,0.018,0.003,0.025,0.004c0.091,0.008,0.181,0.02,0.271,0.031
		c0.036,0.006,0.072,0.011,0.108,0.017c0.064,0.009,0.126,0.018,0.189,0.028c0.041,0.007,0.082,0.013,0.121,0.02
		c0.068,0.013,0.136,0.025,0.204,0.038c0.073,0.017,0.146,0.031,0.218,0.046c0.037,0.01,0.074,0.019,0.111,0.026
		c0.063,0.014,0.125,0.03,0.187,0.046c0.021,0.005,0.043,0.01,0.063,0.017c4.247,1.114,7.389,4.984,7.389,9.577
		C57.141,52.062,52.7,56.502,47.241,56.502z"/>
	<path fill="#FFFFFF" d="M47.241,38.749c-4.381,0-7.946,3.564-7.946,7.946c0,4.381,3.565,7.946,7.946,7.946
		c4.383,0,7.947-3.565,7.947-7.946C55.188,42.313,51.624,38.749,47.241,38.749z M47.241,53.943c-3.996,0-7.248-3.251-7.248-7.248
		s3.252-7.248,7.248-7.248c3.998,0,7.248,3.251,7.248,7.248S51.239,53.943,47.241,53.943z"/>
</g>
</svg>
