<?xml version="1.0" encoding="utf-8"?>
<!-- Generator: Adobe Illustrator 16.0.0, SVG Export Plug-In . SVG Version: 6.00 Build 0)  -->
<!DOCTYPE svg PUBLIC "-//W3C//DTD SVG 1.1//EN" "http://www.w3.org/Graphics/SVG/1.1/DTD/svg11.dtd">
<svg version="1.1" id="Layer_1" xmlns="http://www.w3.org/2000/svg" xmlns:xlink="http://www.w3.org/1999/xlink" x="0px" y="0px"
	 width="64px" height="64px" viewBox="0 0 64 64" enable-background="new 0 0 64 64" xml:space="preserve">
<g>
	<g>
		<g>
			<g>
				<path fill="#FFFFFF" d="M54.99,57.65H35.466c-1.029,0-1.864-0.834-1.864-1.863V36.264c0-1.027,0.835-1.865,1.864-1.865H54.99
					c1.027,0,1.862,0.838,1.862,1.865v19.523C56.853,56.816,56.018,57.65,54.99,57.65z M35.466,34.754
					c-0.833,0-1.511,0.676-1.511,1.51v19.523c0,0.832,0.678,1.51,1.511,1.51H54.99c0.832,0,1.509-0.678,1.509-1.51V36.264
					c0-0.834-0.677-1.51-1.509-1.51H35.466z"/>
			</g>
		</g>
		<g>
			<g>
				<path fill="#D0D1D1" d="M48.104,51.426c0,0.467-0.377,0.844-0.842,0.844h-4.07c-0.465,0-0.839-0.377-0.839-0.844V40.621
					c0-0.465,0.374-0.842,0.839-0.842h4.07c0.465,0,0.842,0.377,0.842,0.842V51.426z"/>
			</g>
		</g>
		<g>
			<g>
				<g>
					<path fill="#FFFFFF" d="M48.883,38.9v13.734c0,0.592-0.476,1.066-1.068,1.066h-5.169c-0.593,0-1.072-0.475-1.072-1.066V38.9
						c0-0.588,0.479-1.068,1.072-1.068h5.169C48.407,37.832,48.883,38.313,48.883,38.9z"/>
				</g>
			</g>
			<g>
				<g>
					<path fill="#AFAEAF" d="M48.883,46.082v6.865c0,0.592-0.476,1.066-1.068,1.066h-5.169c-0.593,0-1.072-0.475-1.072-1.066v-6.865
						H48.883z"/>
				</g>
			</g>
		</g>
	</g>
	<g>
		<g>
			<g>
				<path fill="#FFFFFF" d="M27.725,57.551H8.201c-1.029,0-1.865-0.834-1.865-1.861V36.166c0-1.029,0.836-1.863,1.865-1.863h19.523
					c1.026,0,1.863,0.834,1.863,1.863v19.523C29.588,56.717,28.751,57.551,27.725,57.551z M8.201,34.656
					c-0.834,0-1.51,0.676-1.51,1.51v19.523c0,0.832,0.676,1.508,1.51,1.508h19.523c0.832,0,1.509-0.676,1.509-1.508V36.166
					c0-0.834-0.677-1.51-1.509-1.51H8.201z"/>
			</g>
		</g>
		<g>
			<g>
				<path fill="#FFFFFF" d="M25.239,45.492c0,3.578-2.573,6.553-5.974,7.172v-1.201c0-0.172-0.139-0.305-0.306-0.305h-1.901
					c-0.166,0-0.305,0.133-0.305,0.305v1.221c-3.455-0.57-6.098-3.572-6.098-7.191c0-3.615,2.643-6.617,6.098-7.189v1.156
					c0,0.168,0.139,0.305,0.305,0.305h1.901c0.167,0,0.306-0.137,0.306-0.305v-1.137C22.666,38.943,25.239,41.916,25.239,45.492z"/>
			</g>
		</g>
		<g>
			<g>
				<g>
					<circle fill="#7C8997" cx="14.761" cy="45.48" r="1.657"/>
				</g>
			</g>
		</g>
		<g>
			<g>
				<g>
					<circle fill="#7C8997" cx="21.371" cy="45.48" r="1.656"/>
				</g>
			</g>
		</g>
	</g>
	<g>
		<g>
			<g>
				<path fill="#FFFFFF" d="M54.961,30.52H35.437c-1.027,0-1.863-0.836-1.863-1.863V9.132c0-1.028,0.836-1.862,1.863-1.862h19.524
					c1.026,0,1.862,0.834,1.862,1.862v19.524C56.823,29.684,55.987,30.52,54.961,30.52z M35.437,7.622
					c-0.832,0-1.51,0.678-1.51,1.511v19.524c0,0.832,0.678,1.508,1.51,1.508h19.524c0.832,0,1.508-0.676,1.508-1.508V9.132
					c0-0.833-0.676-1.511-1.508-1.511H35.437z"/>
			</g>
		</g>
		<g>
			<g>
				<path fill="#FFFFFF" d="M46.35,16.104c0,0.195-0.16,0.354-0.354,0.354h-1.593c-0.198,0-0.355-0.158-0.355-0.354v-4.162
					c0-0.197,0.157-0.354,0.355-0.354h1.593c0.194,0,0.354,0.156,0.354,0.354V16.104z"/>
			</g>
		</g>
		<g>
			<g>
				<path fill="#FFFFFF" d="M41.08,21.949c0.196,0,0.354,0.158,0.354,0.354v1.594c0,0.195-0.158,0.354-0.354,0.354h-4.161
					c-0.195,0-0.354-0.158-0.354-0.354v-1.594c0-0.195,0.159-0.354,0.354-0.354H41.08z"/>
			</g>
		</g>
		<g>
			<g>
				<path fill="#FFFFFF" d="M53.156,21.949c0.196,0,0.354,0.158,0.354,0.354v1.594c0,0.195-0.158,0.354-0.354,0.354h-4.161
					c-0.196,0-0.354-0.158-0.354-0.354v-1.594c0-0.195,0.158-0.354,0.354-0.354H53.156z"/>
			</g>
		</g>
	</g>
	<g>
		<path fill="#FFFFFF" d="M17.504,10.123c-4.842,0-8.766,3.926-8.766,8.768c0,4.84,3.924,8.764,8.766,8.764s8.767-3.924,8.767-8.764
			C26.271,14.049,22.346,10.123,17.504,10.123z M17.504,26.521c-4.18,0-7.568-3.387-7.568-7.564c0-0.457,0.038-0.902,0.116-1.334
			c0.38-2.127,1.644-3.939,3.396-5.055c1.173-0.748,2.564-1.18,4.057-1.18c3.729,0,6.832,2.701,7.451,6.254
			c0.078,0.426,0.117,0.863,0.117,1.314c0,1.492-0.431,2.883-1.18,4.055C22.551,25.123,20.191,26.521,17.504,26.521z"/>
		<g>
			<g>
				<path fill="#FFFFFF" d="M23.293,16.303c-0.024-0.045-0.057-0.088-0.084-0.133c0,0,0-0.002,0-0.004
					c-1.174-2.656-4.12-4.166-7.035-3.445c-1.165,0.289-2.168,0.895-2.941,1.707c-1.123,1.18-1.758,2.785-1.68,4.471
					c0.367-1.621,1.729-3.023,3.595-3.486c2.218-0.549,4.403,0.408,5.323,2.178c0.031,0.057,0.062,0.119,0.088,0.178
					c0.004,0.012,0.009,0.021,0.016,0.029c0.336,0.551,1,0.848,1.66,0.686c0.007-0.004,0.014-0.004,0.018-0.01
					c0.01,0,0.016,0,0.022-0.002c0.349-0.086,0.642-0.283,0.849-0.541c0.286-0.352,0.412-0.83,0.295-1.299
					C23.39,16.512,23.348,16.402,23.293,16.303z"/>
			</g>
		</g>
	</g>
	<g>
		<g>
			<path fill="#FFFFFF" d="M27.67,30.539H8.145c-1.027,0-1.863-0.836-1.863-1.861V9.153c0-1.028,0.836-1.863,1.863-1.863H27.67
				c1.026,0,1.862,0.835,1.862,1.863v19.525C29.532,29.703,28.696,30.539,27.67,30.539z M8.145,7.643
				c-0.83,0-1.509,0.677-1.509,1.51v19.525c0,0.83,0.679,1.508,1.509,1.508H27.67c0.831,0,1.508-0.678,1.508-1.508V9.153
				c0-0.833-0.677-1.51-1.508-1.51H8.145z"/>
		</g>
	</g>
</g>
</svg>
