<?xml version="1.0" encoding="utf-8"?>
<!-- Generator: Adobe Illustrator 16.0.0, SVG Export Plug-In . SVG Version: 6.00 Build 0)  -->
<!DOCTYPE svg PUBLIC "-//W3C//DTD SVG 1.1//EN" "http://www.w3.org/Graphics/SVG/1.1/DTD/svg11.dtd">
<svg version="1.1" id="Layer_1" xmlns="http://www.w3.org/2000/svg" xmlns:xlink="http://www.w3.org/1999/xlink" x="0px" y="0px"
	 width="64px" height="64px" viewBox="0 0 64 64" enable-background="new 0 0 64 64" xml:space="preserve">
<g>
	<path fill="#FFFFFF" d="M45.212,17.611l0.16-0.174c0.614-0.665,1.023-1.396,1.219-2.174l1.618-0.855
		c0.671,0.551,1.528,0.881,2.462,0.881c2.15,0,3.9-1.751,3.9-3.902s-1.75-3.902-3.9-3.902c-1.681,0-3.112,1.07-3.66,2.563h-1.419
		c-0.547-1.493-1.979-2.563-3.66-2.563c-1.679,0-3.11,1.07-3.659,2.563h-1.418c-0.549-1.493-1.979-2.563-3.659-2.563
		c-2.152,0-3.901,1.751-3.901,3.902s1.749,3.902,3.901,3.902c0.936,0,1.794-0.332,2.467-0.883l1.608,0.828
		c0.193,0.791,0.604,1.531,1.221,2.203l0.163,0.174h0.808v1.467h-0.871c-1.816,0-3.294,1.477-3.294,3.293v0.607
		c-0.419,0.726-0.784,1.474-1.095,2.236l-16.171,0.523c-4.68,0-8.486,3.808-8.486,8.486v4.014h1.509v-0.543l0,0h1.083l0,0
		c-0.363,0-0.723,0-1.083,0c0.023,0.182,0.048,0.361,0.069,0.543c0.761,6.457-0.976,12.915-0.069,19.374c0.36,0,0.72,0,1.083,0
		c-0.907-6.459,0.831-12.917,0.068-19.374l0,0h1.308v-0.543l0,0h1.083l0,0c-0.36,0-0.723,0-1.083,0
		c0.024,0.182,0.048,0.361,0.07,0.543c0.762,6.457-0.977,12.915-0.07,19.374c0.36,0,0.723,0,1.083,0
		c-0.906-6.459,0.831-12.917,0.069-19.374l0,0h1.308v-0.543l0,0h1.081l0,0c-0.359,0-0.721,0-1.081,0
		c0.025,0.182,0.048,0.361,0.069,0.543c0.763,6.457-0.976,12.915-0.069,19.374c0.36,0,0.722,0,1.081,0
		c-0.904-6.459,0.833-12.917,0.07-19.374l0,0h1.309v-0.543l0,0h1.082l0,0c-0.361,0-0.721,0-1.082,0
		c0.024,0.182,0.049,0.361,0.069,0.543c0.762,6.457-0.976,12.915-0.069,19.374c0.361,0,0.721,0,1.082,0
		c-0.905-6.459,0.832-12.917,0.07-19.374l0,0h1.379v-1.482l13.214,1.942c0.317,0.785,0.688,1.554,1.119,2.299v12.044
		c-1.175,0.271-2.056,1.321-2.056,2.577v2.085h17.435v-2.085c0-1.256-0.881-2.306-2.056-2.577V40.902
		c3.158-5.524,3.158-12.305,0-17.83v-0.701c0-1.816-1.477-3.293-3.293-3.293h-0.77v-1.467H45.212z M50.671,8.567
		c1.555,0,2.818,1.264,2.818,2.819c0,1.555-1.264,2.818-2.818,2.818c-1.554,0-2.819-1.264-2.819-2.818
		C47.852,9.832,49.117,8.567,50.671,8.567z M41.932,8.567c1.556,0,2.82,1.264,2.82,2.819c0,1.555-1.265,2.818-2.82,2.818
		c-1.553,0-2.817-1.264-2.817-2.818C39.114,9.832,40.379,8.567,41.932,8.567z M33.195,14.205c-1.554,0-2.818-1.264-2.818-2.818
		c0-1.555,1.265-2.819,2.818-2.819s2.818,1.264,2.818,2.819C36.014,12.941,34.749,14.205,33.195,14.205z M33.758,37.542
		l-13.876-2.039v1.651h-9.254v-2.93c0-4.082,3.321-7.404,7.421-7.404l15.747-0.508C32.582,29.955,32.571,33.894,33.758,37.542z
		 M49.594,55.618v1.002H34.323v-1.002c0-0.864,0.704-1.566,1.569-1.566h12.134C48.891,54.052,49.594,54.754,49.594,55.618z
		 M36.38,52.968V41.401h11.157v11.566H36.38z M47.716,23.658c2.93,5.166,2.93,11.492,0,16.659H36.15
		c-2.93-5.167-2.93-11.493,0-16.659H47.716z M45.327,20.162c1.218,0,2.21,0.99,2.21,2.209v0.203H36.38v-0.203
		c0-1.219,0.991-2.209,2.211-2.209H45.327z M40.544,19.078v-1.467h2.93v1.467H40.544z M39.135,16.529
		c-0.456-0.546-0.745-1.135-0.856-1.756l-0.048-0.261l-1.811-0.935c0.427-0.625,0.676-1.381,0.676-2.191
		c0-0.086-0.007-0.171-0.013-0.256h0.962c-0.006,0.085-0.014,0.17-0.014,0.256c0,2.151,1.749,3.902,3.9,3.902
		c2.152,0,3.902-1.751,3.902-3.902c0-0.086-0.006-0.171-0.014-0.256h0.963c-0.007,0.085-0.014,0.17-0.014,0.256
		c0,0.814,0.253,1.572,0.681,2.198l-1.817,0.96l-0.047,0.256c-0.115,0.609-0.403,1.189-0.855,1.729H39.135z"/>
	<path fill="#FFFFFF" d="M16.248,27.984c-1.568,0.475-2.89,1.516-3.721,2.932c-0.151,0.258-0.065,0.59,0.193,0.74
		c0.086,0.053,0.18,0.076,0.272,0.076c0.187,0,0.367-0.098,0.469-0.267c0.691-1.184,1.793-2.05,3.1-2.444
		c0.286-0.086,0.447-0.389,0.36-0.676C16.837,28.06,16.533,27.894,16.248,27.984z"/>
</g>
</svg>
