<?xml version="1.0" encoding="utf-8"?>
<!-- Generator: Adobe Illustrator 16.0.0, SVG Export Plug-In . SVG Version: 6.00 Build 0)  -->
<!DOCTYPE svg PUBLIC "-//W3C//DTD SVG 1.1//EN" "http://www.w3.org/Graphics/SVG/1.1/DTD/svg11.dtd">
<svg version="1.1" id="Layer_1" xmlns="http://www.w3.org/2000/svg" xmlns:xlink="http://www.w3.org/1999/xlink" x="0px" y="0px"
	 width="64px" height="64px" viewBox="0 0 64 64" enable-background="new 0 0 64 64" xml:space="preserve">
<g>
	<rect x="9" y="23" fill="#FFFFFF" width="17" height="10"/>
	<rect x="37" y="23" fill="#FFFFFF" width="17" height="10"/>
	<rect x="12" y="34" fill="#FFFFFF" width="14" height="24"/>
	<rect x="37" y="34" fill="#FFFFFF" width="14" height="24"/>
	<path fill="#FFFFFF" d="M30.18,39.005l2.84-1.353c-3.44-7.224-2.066-12.688-0.975-15.258c0.137-0.324,0.27-0.604,0.389-0.832
		c0.525,0.051,1.057,0.085,1.59,0.085c5.338,0,10.485-2.547,12.52-6.192c1.257-2.256,1.202-4.711-0.159-6.914
		C45.331,6.838,43.654,5.9,41.657,5.9c-4.309,0-7.971,3.808-10.044,8.515C29.538,9.708,25.876,5.9,21.567,5.9
		c-1.995,0-3.675,0.938-4.727,2.641c-1.359,2.203-1.416,4.658-0.158,6.914c2.003,3.592,7.03,6.111,12.282,6.186
		c-0.092,0.234-0.183,0.488-0.271,0.754C27.525,25.848,26.702,31.701,30.18,39.005z M41.657,9.045c0.902,0,1.573,0.375,2.052,1.149
		c0.755,1.224,0.785,2.478,0.087,3.729c-1.544,2.765-5.962,4.746-10.306,4.567C35.092,12.057,39.177,9.045,41.657,9.045z
		 M19.43,13.924c-0.698-1.252-0.669-2.506,0.087-3.729c0.477-0.773,1.148-1.149,2.051-1.149c2.482,0,6.566,3.011,8.167,9.446
		C25.396,18.669,20.972,16.688,19.43,13.924z"/>
</g>
</svg>
